# xmcd
#
# Track frame offsets:
#	150
#	19867
#	38429
#	57175
#	74254
#	88021
#	104220
#	122612
#	140255
#	162383
#	183103
#	202175
#	219142
#	237687
#	257591
#	276504
#	296912
#
# Disc length: 4207 seconds
#
# Revision: 0
# Processed by: cddbd v1.5.2PL0 Copyright (c) Steve Scherf et al.
# Submitted via: EasyCDDAExtractor 11.0.2.1
#
DISCID=05106d11
DTITLE=Rocio Jurado - Volcan De Amor Y Fuego - CD 1
DYEAR=2006
DGENRE=Latin
TTITLE0=Volcan De Amor Y Fuego
TTITLE1=Donde Estas Amor
TTITLE2=Vibro
TTITLE3=Quien
TTITLE4=Compañero Mio
TTITLE5=Quien Te Crees Que Eres Tu
TTITLE6=Solo Ser Tu Amiga
TTITLE7=Una Mirada
TTITLE8=Ay Amor, Ay Amante
TTITLE9=Se Va A Reir De Ti
TTITLE10=Tan Solo Una Mujer
TTITLE11=Sin Ti No Soy Nada
TTITLE12=Necesito Estar Sola
TTITLE13=La Yerbabuena
TTITLE14=Ahora Que No Estas
TTITLE15=Eres Unico
TTITLE16=Perros Perdidos
EXTD=
EXTT0=
EXTT1=
EXTT2=
EXTT3=
EXTT4=
EXTT5=
EXTT6=
EXTT7=
EXTT8=
EXTT9=
EXTT10=
EXTT11=
EXTT12=
EXTT13=
EXTT14=
EXTT15=
EXTT16=
PLAYORDER=
